<svg width="238" height="106" viewBox="0 0 238 106" fill="none" xmlns="http://www.w3.org/2000/svg">
<path d="M13.7256 0L16.6301 8.98278H26.0292L18.4251 14.5344L21.3296 23.5172L13.7256 17.9656L6.1215 23.5172L9.02599 14.5344L1.42193 8.98278H10.8211L13.7256 0Z" fill="#FFC728"/>
<path d="M42.5846 0L45.4891 8.98278H54.8883L47.2842 14.5344L50.1887 23.5172L42.5846 17.9656L34.9806 23.5172L37.8851 14.5344L30.281 8.98278H39.6801L42.5846 0Z" fill="#FFC728"/>
<path d="M71.4437 0L74.3482 8.98278H83.7473L76.1433 14.5344L79.0478 23.5172L71.4437 17.9656L63.8396 23.5172L66.7441 14.5344L59.1401 8.98278H68.5392L71.4437 0Z" fill="#FFC728"/>
<path d="M100.303 0L103.207 8.98278H112.606L105.002 14.5344L107.907 23.5172L100.303 17.9656L92.6986 23.5172L95.6031 14.5344L87.9991 8.98278H97.3982L100.303 0Z" fill="#FFC728"/>
<path d="M129.162 0L132.066 8.98278H141.465L133.861 14.5344L136.766 23.5172L129.162 17.9656L121.558 23.5172L124.462 14.5344L116.858 8.98278H126.257L129.162 0Z" fill="#FFC728"/>
<path d="M1.65168 59.6989V57.5192L7.11688 48.9091H8.99614V51.9261H7.88393L4.43862 57.3786V57.4808H12.205V59.6989H1.65168ZM7.93506 62V59.0341L7.9862 58.0689V48.9091H10.5814V62H7.93506ZM15.4201 62.1662C14.9983 62.1662 14.6361 62.017 14.3335 61.7188C14.0352 61.4162 13.8861 61.054 13.8861 60.6321C13.8861 60.2145 14.0352 59.8565 14.3335 59.5582C14.6361 59.2599 14.9983 59.1108 15.4201 59.1108C15.8292 59.1108 16.1872 59.2599 16.494 59.5582C16.8008 59.8565 16.9542 60.2145 16.9542 60.6321C16.9542 60.9134 16.8818 61.1712 16.7369 61.4055C16.5963 61.6357 16.4109 61.821 16.1808 61.9616C15.9507 62.098 15.6971 62.1662 15.4201 62.1662ZM23.5205 62.179C22.5361 62.179 21.6604 62.0192 20.8933 61.6996C20.1306 61.3757 19.5318 60.9347 19.0972 60.3764C18.6625 59.8182 18.4452 59.1854 18.4452 58.478C18.4452 57.9325 18.5688 57.4318 18.8159 56.9759C19.0673 56.5156 19.4083 56.1342 19.8387 55.8317C20.269 55.5249 20.7506 55.3288 21.2833 55.2436V55.1541C20.5844 55.0135 20.0176 54.6747 19.583 54.1378C19.1483 53.5966 18.931 52.968 18.931 52.2521C18.931 51.5746 19.1291 50.9716 19.5254 50.4432C19.9217 49.9105 20.4651 49.4929 21.1554 49.1903C21.85 48.8835 22.6384 48.7301 23.5205 48.7301C24.4026 48.7301 25.1888 48.8835 25.8791 49.1903C26.5737 49.4972 27.1192 49.9169 27.5155 50.4496C27.9118 50.978 28.1121 51.5788 28.1163 52.2521C28.1121 52.9723 27.8905 53.6009 27.4516 54.1378C27.0127 54.6747 26.4502 55.0135 25.7641 55.1541V55.2436C26.2882 55.3288 26.7634 55.5249 27.1895 55.8317C27.6199 56.1342 27.9608 56.5156 28.2122 56.9759C28.4679 57.4318 28.5979 57.9325 28.6021 58.478C28.5979 59.1854 28.3784 59.8182 27.9438 60.3764C27.5091 60.9347 26.9083 61.3757 26.1412 61.6996C25.3784 62.0192 24.5048 62.179 23.5205 62.179ZM23.5205 60.1463C23.9594 60.1463 24.3429 60.0675 24.671 59.9098C24.9992 59.7479 25.2548 59.5263 25.4381 59.245C25.6256 58.9595 25.7193 58.6314 25.7193 58.2607C25.7193 57.8814 25.6235 57.5469 25.4317 57.2571C25.2399 56.9631 24.98 56.733 24.6519 56.5668C24.3237 56.3963 23.9466 56.3111 23.5205 56.3111C23.0986 56.3111 22.7215 56.3963 22.3891 56.5668C22.0567 56.733 21.7946 56.9631 21.6029 57.2571C21.4154 57.5469 21.3216 57.8814 21.3216 58.2607C21.3216 58.6314 21.4132 58.9595 21.5965 59.245C21.7797 59.5263 22.0375 59.7479 22.3699 59.9098C22.7023 60.0675 23.0858 60.1463 23.5205 60.1463ZM23.5205 54.2976C23.8869 54.2976 24.2129 54.223 24.4985 54.0739C24.784 53.9247 25.0077 53.718 25.1696 53.4538C25.3315 53.1896 25.4125 52.8849 25.4125 52.5398C25.4125 52.1989 25.3315 51.9006 25.1696 51.6449C25.0077 51.3849 24.7861 51.1825 24.5048 51.0376C24.2236 50.8885 23.8955 50.8139 23.5205 50.8139C23.1497 50.8139 22.8216 50.8885 22.5361 51.0376C22.2506 51.1825 22.0269 51.3849 21.8649 51.6449C21.7073 51.9006 21.6284 52.1989 21.6284 52.5398C21.6284 52.8849 21.7094 53.1896 21.8713 53.4538C22.0333 53.718 22.257 53.9247 22.5425 54.0739C22.828 54.223 23.154 54.2976 23.5205 54.2976ZM40.5473 48.2955L36.3285 63.9688H34.9478L39.1666 48.2955H40.5473ZM51.5975 62.179C50.7964 62.179 50.0762 62.0256 49.437 61.7188C48.8021 61.4077 48.295 60.9815 47.9157 60.4403C47.5364 59.8991 47.334 59.2812 47.3085 58.5866H49.2261C49.273 59.1491 49.5222 59.6115 49.9739 59.9737C50.4257 60.3359 50.9668 60.517 51.5975 60.517C52.1004 60.517 52.5457 60.402 52.9335 60.1719C53.3255 59.9375 53.6323 59.6158 53.8539 59.2067C54.0798 58.7976 54.1927 58.331 54.1927 57.8068C54.1927 57.2741 54.0776 56.799 53.8475 56.3814C53.6174 55.9638 53.2999 55.6357 52.8951 55.397C52.4945 55.1584 52.0343 55.0369 51.5144 55.0327C51.1181 55.0327 50.7197 55.1009 50.3191 55.2372C49.9186 55.3736 49.5947 55.5526 49.3475 55.7741L47.5386 55.5057L48.2737 48.9091H55.4711V50.603H49.9164L49.5009 54.2656H49.5776C49.8333 54.0185 50.1721 53.8118 50.594 53.6456C51.0201 53.4794 51.4761 53.3963 51.9619 53.3963C52.7588 53.3963 53.4683 53.5859 54.0904 53.9652C54.7168 54.3445 55.209 54.8622 55.567 55.5185C55.9292 56.1705 56.1082 56.9205 56.1039 57.7685C56.1082 58.6165 55.9164 59.3729 55.5286 60.0376C55.1451 60.7024 54.6124 61.2266 53.9306 61.6101C53.2531 61.9893 52.4754 62.179 51.5975 62.179ZM63.2279 62V52.1818H65.0752V53.7415H65.1774C65.3564 53.2131 65.6717 52.7976 66.1235 52.495C66.5794 52.1882 67.095 52.0348 67.6703 52.0348C67.7896 52.0348 67.9303 52.0391 68.0922 52.0476C68.2584 52.0561 68.3884 52.0668 68.4821 52.0795V53.9077C68.4054 53.8864 68.269 53.8629 68.073 53.8374C67.877 53.8075 67.681 53.7926 67.485 53.7926C67.0333 53.7926 66.6306 53.8885 66.2769 54.0803C65.9274 54.2678 65.6504 54.5298 65.4459 54.8665C65.2413 55.1989 65.1391 55.5781 65.1391 56.0043V62H63.2279ZM72.9054 62.2173C72.2833 62.2173 71.7208 62.1023 71.2179 61.8722C70.7151 61.6378 70.3166 61.299 70.0226 60.8558C69.7328 60.4126 69.5879 59.8693 69.5879 59.2259C69.5879 58.6719 69.6945 58.2159 69.9075 57.858C70.1206 57.5 70.4083 57.2166 70.7705 57.0078C71.1327 56.799 71.5375 56.6413 71.985 56.5348C72.4324 56.4283 72.8884 56.3473 73.3529 56.2919C73.9409 56.2237 74.4182 56.1683 74.7847 56.1257C75.1512 56.0788 75.4175 56.0043 75.5837 55.902C75.7499 55.7997 75.833 55.6335 75.833 55.4034V55.3587C75.833 54.8004 75.6753 54.3679 75.36 54.0611C75.0489 53.7543 74.5844 53.6009 73.9665 53.6009C73.323 53.6009 72.8159 53.7436 72.4452 54.0291C72.0787 54.3104 71.8252 54.6236 71.6845 54.9688L69.8884 54.5597C70.1014 53.9631 70.4125 53.4815 70.8216 53.1151C71.235 52.7443 71.7101 52.4759 72.247 52.3097C72.784 52.1392 73.3486 52.054 73.9409 52.054C74.333 52.054 74.7485 52.1009 75.1874 52.1946C75.6306 52.2841 76.0439 52.4503 76.4274 52.6932C76.8152 52.9361 77.1327 53.2834 77.3798 53.7351C77.627 54.1825 77.7506 54.7642 77.7506 55.4801V62H75.8841V60.6577H75.8074C75.6838 60.9048 75.4985 61.1477 75.2513 61.3864C75.0041 61.625 74.6867 61.8232 74.2989 61.9808C73.9111 62.1385 73.4466 62.2173 72.9054 62.2173ZM73.3209 60.6832C73.8493 60.6832 74.301 60.5788 74.676 60.37C75.0553 60.1612 75.3429 59.8885 75.5389 59.5518C75.7392 59.2109 75.8394 58.8466 75.8394 58.4588V57.1932C75.7712 57.2614 75.6391 57.3253 75.4431 57.3849C75.2513 57.4403 75.0318 57.4893 74.7847 57.532C74.5375 57.5703 74.2967 57.6065 74.0624 57.6406C73.828 57.6705 73.632 57.696 73.4743 57.7173C73.1036 57.7642 72.7648 57.843 72.458 57.9538C72.1554 58.0646 71.9125 58.2244 71.7293 58.4332C71.5503 58.6378 71.4608 58.9105 71.4608 59.2514C71.4608 59.7244 71.6355 60.0824 71.985 60.3253C72.3344 60.5639 72.7797 60.6832 73.3209 60.6832ZM84.8793 52.1818V53.7159H79.5164V52.1818H84.8793ZM80.9546 49.8295H82.8658V59.1172C82.8658 59.4879 82.9212 59.767 83.032 59.9545C83.1428 60.1378 83.2856 60.2635 83.4603 60.3317C83.6393 60.3956 83.8331 60.4276 84.042 60.4276C84.1954 60.4276 84.3296 60.4169 84.4447 60.3956C84.5597 60.3743 84.6492 60.3572 84.7131 60.3445L85.0583 61.9233C84.9475 61.9659 84.7898 62.0085 84.5853 62.0511C84.3807 62.098 84.1251 62.1236 83.8182 62.1278C83.3154 62.1364 82.8466 62.0469 82.412 61.8594C81.9773 61.6719 81.6258 61.3821 81.3573 60.9901C81.0888 60.598 80.9546 60.1058 80.9546 59.5135V49.8295ZM86.9935 62V52.1818H88.9047V62H86.9935ZM87.9587 50.6669C87.6263 50.6669 87.3408 50.5561 87.1021 50.3345C86.8678 50.1087 86.7506 49.8402 86.7506 49.5291C86.7506 49.2138 86.8678 48.9453 87.1021 48.7237C87.3408 48.4979 87.6263 48.3849 87.9587 48.3849C88.2911 48.3849 88.5744 48.4979 88.8088 48.7237C89.0475 48.9453 89.1668 49.2138 89.1668 49.5291C89.1668 49.8402 89.0475 50.1087 88.8088 50.3345C88.5744 50.5561 88.2911 50.6669 87.9587 50.6669ZM93.3871 56.1705V62H91.4759V52.1818H93.3104V53.7798H93.4319C93.6577 53.2599 94.0114 52.8423 94.4929 52.527C94.9787 52.2116 95.5902 52.054 96.3275 52.054C96.9965 52.054 97.5824 52.1946 98.0853 52.4759C98.5881 52.7528 98.978 53.1662 99.255 53.7159C99.532 54.2656 99.6705 54.9453 99.6705 55.755V62H97.7593V55.9851C97.7593 55.2734 97.5739 54.7173 97.2032 54.3168C96.8324 53.9119 96.3232 53.7095 95.6755 53.7095C95.2323 53.7095 94.8381 53.8054 94.4929 53.9972C94.152 54.1889 93.8814 54.4702 93.6812 54.8409C93.4851 55.2074 93.3871 55.6506 93.3871 56.1705ZM106.35 65.8864C105.57 65.8864 104.899 65.7841 104.337 65.5795C103.778 65.375 103.322 65.1044 102.969 64.7678C102.615 64.4311 102.351 64.0625 102.176 63.6619L103.819 62.9844C103.934 63.1719 104.087 63.37 104.279 63.5788C104.475 63.7919 104.739 63.973 105.072 64.1222C105.408 64.2713 105.841 64.3459 106.369 64.3459C107.094 64.3459 107.693 64.169 108.166 63.8153C108.639 63.4659 108.875 62.9077 108.875 62.1406V60.2102H108.754C108.639 60.419 108.472 60.6513 108.255 60.907C108.042 61.1626 107.748 61.3842 107.373 61.5717C106.998 61.7592 106.51 61.853 105.909 61.853C105.134 61.853 104.435 61.6719 103.813 61.3097C103.195 60.9432 102.705 60.4041 102.342 59.6925C101.984 58.9766 101.805 58.0966 101.805 57.0526C101.805 56.0085 101.982 55.1136 102.336 54.3679C102.694 53.6222 103.184 53.0511 103.806 52.6548C104.428 52.2543 105.134 52.054 105.922 52.054C106.531 52.054 107.023 52.1562 107.398 52.3608C107.773 52.5611 108.065 52.7955 108.274 53.0639C108.487 53.3324 108.651 53.5689 108.766 53.7734H108.907V52.1818H110.78V62.2173C110.78 63.0611 110.584 63.7536 110.192 64.2947C109.8 64.8359 109.269 65.2365 108.6 65.4964C107.935 65.7564 107.185 65.8864 106.35 65.8864ZM106.331 60.2678C106.881 60.2678 107.345 60.1399 107.724 59.8842C108.108 59.6243 108.398 59.2536 108.594 58.772C108.794 58.2862 108.894 57.7045 108.894 57.027C108.894 56.3665 108.796 55.7848 108.6 55.282C108.404 54.7791 108.117 54.3871 107.737 54.1058C107.358 53.8203 106.889 53.6776 106.331 53.6776C105.756 53.6776 105.276 53.8267 104.893 54.125C104.509 54.419 104.22 54.8196 104.023 55.3267C103.832 55.8338 103.736 56.4006 103.736 57.027C103.736 57.6705 103.834 58.2351 104.03 58.7209C104.226 59.2067 104.516 59.5859 104.899 59.8587C105.287 60.1314 105.764 60.2678 106.331 60.2678Z" fill="white"/>
<path d="M13.688 93.4922H10.8883C10.8372 93.13 10.7328 92.8082 10.5751 92.527C10.4174 92.2415 10.215 91.9986 9.96786 91.7983C9.7207 91.598 9.43519 91.4446 9.11132 91.3381C8.79172 91.2315 8.44442 91.1783 8.06942 91.1783C7.39186 91.1783 6.80166 91.3466 6.29882 91.6832C5.79598 92.0156 5.40607 92.5014 5.12908 93.1406C4.85209 93.7756 4.7136 94.5469 4.7136 95.4545C4.7136 96.3878 4.85209 97.1719 5.12908 97.8068C5.41033 98.4418 5.80237 98.9212 6.30521 99.245C6.80806 99.5689 7.38973 99.7308 8.05024 99.7308C8.42098 99.7308 8.76402 99.6818 9.07936 99.5838C9.39897 99.4858 9.68235 99.343 9.9295 99.1555C10.1767 98.9638 10.3812 98.7315 10.5431 98.4588C10.7093 98.1861 10.8244 97.875 10.8883 97.5256L13.688 97.5384C13.6156 98.1392 13.4345 98.7188 13.1447 99.277C12.8592 99.831 12.4735 100.327 11.9877 100.766C11.5062 101.201 10.9309 101.546 10.2619 101.802C9.59712 102.053 8.84499 102.179 8.0055 102.179C6.83789 102.179 5.79385 101.915 4.8734 101.386C3.9572 100.858 3.23277 100.093 2.7001 99.0916C2.17169 98.0902 1.90749 96.8778 1.90749 95.4545C1.90749 94.027 2.17595 92.8125 2.71289 91.8111C3.24982 90.8097 3.97851 90.0469 4.89896 89.5227C5.81942 88.9943 6.85493 88.7301 8.0055 88.7301C8.76402 88.7301 9.46715 88.8366 10.1149 89.0497C10.7669 89.2628 11.3443 89.5739 11.8471 89.983C12.35 90.3878 12.7591 90.8842 13.0744 91.4723C13.394 92.0604 13.5985 92.7337 13.688 93.4922ZM21.9178 97.8196V92.1818H24.6408V102H22.0265V100.217H21.9242C21.7026 100.792 21.334 101.254 20.8184 101.604C20.307 101.953 19.6827 102.128 18.9455 102.128C18.2892 102.128 17.7118 101.979 17.2132 101.68C16.7147 101.382 16.3247 100.958 16.0435 100.408C15.7665 99.8587 15.6259 99.2003 15.6216 98.4332V92.1818H18.3446V97.9474C18.3489 98.527 18.5044 98.9851 18.8113 99.3217C19.1181 99.6584 19.5293 99.8267 20.0449 99.8267C20.373 99.8267 20.6799 99.7521 20.9654 99.603C21.2509 99.4496 21.481 99.2237 21.6557 98.9254C21.8347 98.6271 21.922 98.2585 21.9178 97.8196ZM34.9879 94.9815L32.495 95.1349C32.4524 94.9219 32.3608 94.7301 32.2202 94.5597C32.0795 94.3849 31.8942 94.2464 31.6641 94.1442C31.4382 94.0376 31.1676 93.9844 30.8523 93.9844C30.4304 93.9844 30.0746 94.0739 29.7848 94.2528C29.495 94.4276 29.3501 94.6619 29.3501 94.956C29.3501 95.1903 29.4439 95.3885 29.6314 95.5504C29.8189 95.7124 30.1406 95.8423 30.5966 95.9403L32.3736 96.2983C33.3281 96.4943 34.0398 96.8097 34.5085 97.2443C34.9773 97.679 35.2116 98.25 35.2116 98.9574C35.2116 99.6009 35.022 100.165 34.6428 100.651C34.2678 101.137 33.7521 101.516 33.0959 101.789C32.4439 102.058 31.6918 102.192 30.8395 102.192C29.5398 102.192 28.5043 101.921 27.7329 101.38C26.9659 100.835 26.5163 100.093 26.3842 99.1555L29.0625 99.0149C29.1435 99.4112 29.3395 99.7138 29.6506 99.9226C29.9616 100.127 30.3601 100.229 30.8459 100.229C31.3231 100.229 31.7067 100.138 31.9964 99.9545C32.2905 99.767 32.4396 99.5263 32.4439 99.2322C32.4396 98.9851 32.3352 98.7827 32.1307 98.625C31.9261 98.4631 31.6108 98.3395 31.1847 98.2543L29.4844 97.9155C28.5256 97.7237 27.8118 97.3913 27.343 96.9183C26.8785 96.4453 26.6463 95.8423 26.6463 95.1094C26.6463 94.4787 26.8168 93.9354 27.1577 93.4794C27.5028 93.0234 27.9865 92.6719 28.6087 92.4247C29.2351 92.1776 29.968 92.054 30.8075 92.054C32.0476 92.054 33.0234 92.3161 33.7351 92.8402C34.451 93.3643 34.8686 94.0781 34.9879 94.9815ZM42.1486 92.1818V94.2273H36.236V92.1818H42.1486ZM37.5783 89.8295H40.3013V98.983C40.3013 99.2344 40.3397 99.4304 40.4164 99.571C40.4931 99.7074 40.5996 99.8033 40.736 99.8587C40.8766 99.9141 41.0385 99.9418 41.2218 99.9418C41.3496 99.9418 41.4774 99.9311 41.6053 99.9098C41.7331 99.8842 41.8311 99.8651 41.8993 99.8523L42.3276 101.879C42.1912 101.921 41.9995 101.97 41.7523 102.026C41.5051 102.085 41.2047 102.121 40.851 102.134C40.1948 102.16 39.6195 102.072 39.1252 101.872C38.6351 101.672 38.2537 101.361 37.981 100.939C37.7083 100.517 37.574 99.9844 37.5783 99.3409V89.8295ZM48.253 102.192C47.2601 102.192 46.4015 101.981 45.677 101.559C44.9568 101.133 44.4007 100.54 44.0087 99.782C43.6166 99.0192 43.4206 98.1349 43.4206 97.1293C43.4206 96.1151 43.6166 95.2287 44.0087 94.4702C44.4007 93.7074 44.9568 93.1151 45.677 92.6932C46.4015 92.267 47.2601 92.054 48.253 92.054C49.2459 92.054 50.1024 92.267 50.8226 92.6932C51.547 93.1151 52.1053 93.7074 52.4973 94.4702C52.8894 95.2287 53.0854 96.1151 53.0854 97.1293C53.0854 98.1349 52.8894 99.0192 52.4973 99.782C52.1053 100.54 51.547 101.133 50.8226 101.559C50.1024 101.981 49.2459 102.192 48.253 102.192ZM48.2658 100.082C48.7175 100.082 49.0946 99.9545 49.3972 99.6989C49.6997 99.4389 49.9277 99.0852 50.0811 98.6378C50.2388 98.1903 50.3176 97.6811 50.3176 97.1101C50.3176 96.5391 50.2388 96.0298 50.0811 95.5824C49.9277 95.1349 49.6997 94.7812 49.3972 94.5213C49.0946 94.2614 48.7175 94.1314 48.2658 94.1314C47.8098 94.1314 47.4263 94.2614 47.1152 94.5213C46.8084 94.7812 46.5762 95.1349 46.4185 95.5824C46.2651 96.0298 46.1884 96.5391 46.1884 97.1101C46.1884 97.6811 46.2651 98.1903 46.4185 98.6378C46.5762 99.0852 46.8084 99.4389 47.1152 99.6989C47.4263 99.9545 47.8098 100.082 48.2658 100.082ZM54.856 102V92.1818H57.4512V93.9141H57.5662C57.7708 93.3388 58.1117 92.8849 58.589 92.5526C59.0662 92.2202 59.6372 92.054 60.302 92.054C60.9753 92.054 61.5485 92.2223 62.0215 92.5589C62.4945 92.8913 62.8098 93.343 62.9675 93.9141H63.0698C63.2701 93.3516 63.6323 92.902 64.1564 92.5653C64.6848 92.2244 65.3091 92.054 66.0293 92.054C66.9455 92.054 67.6891 92.3459 68.2601 92.9297C68.8354 93.5092 69.123 94.3317 69.123 95.397V102H66.4064V95.9339C66.4064 95.3885 66.2615 94.9794 65.9718 94.7067C65.682 94.4339 65.3198 94.2976 64.8851 94.2976C64.3908 94.2976 64.0051 94.4553 63.7282 94.7706C63.4512 95.0817 63.3127 95.4929 63.3127 96.0043V102H60.6728V95.8764C60.6728 95.3949 60.5343 95.0114 60.2573 94.7259C59.9845 94.4403 59.6245 94.2976 59.177 94.2976C58.8745 94.2976 58.6017 94.3743 58.3588 94.5277C58.1202 94.6768 57.9306 94.8878 57.7899 95.1605C57.6493 95.429 57.579 95.7443 57.579 96.1065V102H54.856ZM75.7484 102.192C74.7385 102.192 73.8691 101.987 73.1404 101.578C72.416 101.165 71.8578 100.581 71.4657 99.8267C71.0737 99.0682 70.8777 98.1712 70.8777 97.1357C70.8777 96.1257 71.0737 95.2393 71.4657 94.4766C71.8578 93.7138 72.4096 93.1193 73.1213 92.6932C73.8372 92.267 74.6767 92.054 75.6397 92.054C76.2875 92.054 76.8904 92.1584 77.4487 92.3672C78.0112 92.5717 78.5012 92.8807 78.9189 93.294C79.3407 93.7074 79.6689 94.2273 79.9032 94.8537C80.1376 95.4759 80.2548 96.2045 80.2548 97.0398V97.7876H71.9643V96.1001H77.6916C77.6916 95.7081 77.6064 95.3608 77.4359 95.0582C77.2654 94.7557 77.0289 94.5192 76.7264 94.3487C76.4281 94.174 76.0808 94.0866 75.6845 94.0866C75.2711 94.0866 74.9046 94.1825 74.585 94.3743C74.2697 94.5618 74.0225 94.8153 73.8436 95.1349C73.6646 95.4503 73.573 95.8018 73.5687 96.1896V97.794C73.5687 98.2798 73.6582 98.6996 73.8372 99.0533C74.0204 99.407 74.2782 99.6797 74.6106 99.8714C74.943 100.063 75.3372 100.159 75.7931 100.159C76.0957 100.159 76.3727 100.116 76.6241 100.031C76.8755 99.946 77.0907 99.8182 77.2697 99.6477C77.4487 99.4773 77.585 99.2685 77.6788 99.0213L80.1973 99.1875C80.0694 99.7926 79.8073 100.321 79.411 100.773C79.019 101.22 78.5119 101.57 77.8897 101.821C77.2718 102.068 76.5581 102.192 75.7484 102.192ZM82.0318 102V92.1818H84.6717V93.8949H84.774C84.9529 93.2855 85.2534 92.8253 85.6752 92.5142C86.0971 92.1989 86.5829 92.0412 87.1326 92.0412C87.269 92.0412 87.416 92.0497 87.5737 92.0668C87.7314 92.0838 87.8698 92.1072 87.9892 92.1371V94.5533C87.8613 94.5149 87.6845 94.4808 87.4586 94.451C87.2328 94.4212 87.0261 94.4062 86.8386 94.4062C86.438 94.4062 86.0801 94.4936 85.7647 94.6683C85.4537 94.8388 85.2065 95.0774 85.0233 95.3842C84.8443 95.6911 84.7548 96.0447 84.7548 96.4453V102H82.0318ZM100.716 92.674C100.665 92.1584 100.445 91.7578 100.057 91.4723C99.6696 91.1868 99.1433 91.044 98.4785 91.044C98.0268 91.044 97.6454 91.108 97.3343 91.2358C97.0233 91.3594 96.7846 91.532 96.6184 91.7536C96.4565 91.9751 96.3755 92.2266 96.3755 92.5078C96.367 92.7422 96.416 92.9467 96.5225 93.1214C96.6333 93.2962 96.7846 93.4474 96.9764 93.5753C97.1681 93.6989 97.3897 93.8075 97.6412 93.9013C97.8926 93.9908 98.161 94.0675 98.4466 94.1314L99.6227 94.4126C100.194 94.5405 100.718 94.7109 101.195 94.924C101.672 95.1371 102.086 95.3991 102.435 95.7102C102.785 96.0213 103.055 96.3878 103.247 96.8097C103.443 97.2315 103.543 97.7152 103.547 98.2607C103.543 99.0618 103.339 99.7564 102.934 100.344C102.533 100.928 101.954 101.382 101.195 101.706C100.441 102.026 99.5311 102.185 98.4657 102.185C97.4089 102.185 96.4885 102.023 95.7044 101.7C94.9245 101.376 94.3152 100.896 93.8762 100.261C93.4416 99.6222 93.2136 98.8317 93.1923 97.8899H95.8706C95.9004 98.3288 96.0261 98.6953 96.2477 98.9893C96.4735 99.2791 96.774 99.4986 97.149 99.6477C97.5282 99.7926 97.9565 99.8651 98.4338 99.8651C98.9025 99.8651 99.3095 99.7969 99.6546 99.6605C100.004 99.5241 100.275 99.3345 100.466 99.0916C100.658 98.8487 100.754 98.5696 100.754 98.2543C100.754 97.9602 100.667 97.7131 100.492 97.5128C100.322 97.3125 100.07 97.142 99.7377 97.0014C99.4096 96.8608 99.0069 96.733 98.5296 96.6179L97.1042 96.2599C96.0005 95.9915 95.1291 95.5717 94.4899 95.0007C93.8507 94.4297 93.5332 93.6605 93.5375 92.6932C93.5332 91.9006 93.7441 91.2081 94.1703 90.6158C94.6007 90.0234 95.1909 89.5611 95.9409 89.2287C96.6909 88.8963 97.5431 88.7301 98.4977 88.7301C99.4693 88.7301 100.317 88.8963 101.042 89.2287C101.77 89.5611 102.337 90.0234 102.742 90.6158C103.147 91.2081 103.356 91.8942 103.368 92.674H100.716ZM108.158 102.185C107.531 102.185 106.973 102.077 106.483 101.859C105.993 101.638 105.605 101.312 105.32 100.881C105.038 100.447 104.898 99.9055 104.898 99.2578C104.898 98.7124 104.998 98.2543 105.198 97.8835C105.398 97.5128 105.671 97.2145 106.016 96.9886C106.362 96.7628 106.754 96.5923 107.192 96.4773C107.636 96.3622 108.1 96.2812 108.586 96.2344C109.157 96.1747 109.617 96.1193 109.967 96.0682C110.316 96.0128 110.57 95.9318 110.727 95.8253C110.885 95.7187 110.964 95.5611 110.964 95.3523V95.3139C110.964 94.9091 110.836 94.5959 110.58 94.3743C110.329 94.1527 109.971 94.0419 109.506 94.0419C109.016 94.0419 108.626 94.1506 108.337 94.3679C108.047 94.581 107.855 94.8494 107.761 95.1733L105.243 94.9688C105.371 94.3722 105.622 93.8565 105.997 93.4219C106.372 92.983 106.856 92.6463 107.448 92.4119C108.045 92.1733 108.735 92.054 109.519 92.054C110.065 92.054 110.587 92.1179 111.085 92.2457C111.588 92.3736 112.033 92.5717 112.421 92.8402C112.813 93.1087 113.122 93.4538 113.348 93.8757C113.574 94.2933 113.687 94.794 113.687 95.3778V102H111.104V100.638H111.028C110.87 100.945 110.659 101.216 110.395 101.45C110.131 101.68 109.813 101.862 109.442 101.994C109.072 102.121 108.643 102.185 108.158 102.185ZM108.937 100.306C109.338 100.306 109.692 100.227 109.999 100.07C110.305 99.9077 110.546 99.6903 110.721 99.4176C110.896 99.1449 110.983 98.8359 110.983 98.4908V97.4489C110.898 97.5043 110.781 97.5554 110.631 97.6023C110.487 97.6449 110.322 97.6854 110.139 97.7237C109.956 97.7578 109.773 97.7898 109.589 97.8196C109.406 97.8452 109.24 97.8686 109.091 97.8899C108.771 97.9368 108.492 98.0114 108.254 98.1136C108.015 98.2159 107.83 98.3544 107.697 98.5291C107.565 98.6996 107.499 98.9126 107.499 99.1683C107.499 99.5391 107.634 99.8224 107.902 100.018C108.175 100.21 108.52 100.306 108.937 100.306ZM121.022 92.1818V94.2273H115.109V92.1818H121.022ZM116.451 89.8295H119.174V98.983C119.174 99.2344 119.213 99.4304 119.289 99.571C119.366 99.7074 119.473 99.8033 119.609 99.8587C119.75 99.9141 119.912 99.9418 120.095 99.9418C120.223 99.9418 120.35 99.9311 120.478 99.9098C120.606 99.8842 120.704 99.8651 120.772 99.8523L121.201 101.879C121.064 101.921 120.873 101.97 120.625 102.026C120.378 102.085 120.078 102.121 119.724 102.134C119.068 102.16 118.493 102.072 117.998 101.872C117.508 101.672 117.127 101.361 116.854 100.939C116.581 100.517 116.447 99.9844 116.451 99.3409V89.8295ZM122.795 102V92.1818H125.518V102H122.795ZM124.163 90.9162C123.759 90.9162 123.411 90.782 123.121 90.5135C122.836 90.2408 122.693 89.9148 122.693 89.5355C122.693 89.1605 122.836 88.8388 123.121 88.5703C123.411 88.2976 123.759 88.1612 124.163 88.1612C124.568 88.1612 124.913 88.2976 125.199 88.5703C125.489 88.8388 125.634 89.1605 125.634 89.5355C125.634 89.9148 125.489 90.2408 125.199 90.5135C124.913 90.782 124.568 90.9162 124.163 90.9162ZM135.869 94.9815L133.376 95.1349C133.333 94.9219 133.242 94.7301 133.101 94.5597C132.96 94.3849 132.775 94.2464 132.545 94.1442C132.319 94.0376 132.048 93.9844 131.733 93.9844C131.311 93.9844 130.955 94.0739 130.666 94.2528C130.376 94.4276 130.231 94.6619 130.231 94.956C130.231 95.1903 130.325 95.3885 130.512 95.5504C130.7 95.7124 131.021 95.8423 131.477 95.9403L133.254 96.2983C134.209 96.4943 134.921 96.8097 135.389 97.2443C135.858 97.679 136.093 98.25 136.093 98.9574C136.093 99.6009 135.903 100.165 135.524 100.651C135.149 101.137 134.633 101.516 133.977 101.789C133.325 102.058 132.573 102.192 131.72 102.192C130.421 102.192 129.385 101.921 128.614 101.38C127.847 100.835 127.397 100.093 127.265 99.1555L129.943 99.0149C130.024 99.4112 130.22 99.7138 130.531 99.9226C130.843 100.127 131.241 100.229 131.727 100.229C132.204 100.229 132.588 100.138 132.877 99.9545C133.171 99.767 133.32 99.5263 133.325 99.2322C133.32 98.9851 133.216 98.7827 133.012 98.625C132.807 98.4631 132.492 98.3395 132.066 98.2543L130.365 97.9155C129.406 97.7237 128.693 97.3913 128.224 96.9183C127.759 96.4453 127.527 95.8423 127.527 95.1094C127.527 94.4787 127.698 93.9354 128.039 93.4794C128.384 93.0234 128.867 92.6719 129.49 92.4247C130.116 92.1776 130.849 92.054 131.688 92.054C132.928 92.054 133.904 92.3161 134.616 92.8402C135.332 93.3643 135.749 94.0781 135.869 94.9815ZM143.087 92.1818V94.2273H137.027V92.1818H143.087ZM138.414 102V91.4723C138.414 90.7607 138.553 90.1705 138.83 89.7017C139.111 89.233 139.495 88.8814 139.98 88.647C140.466 88.4126 141.018 88.2955 141.636 88.2955C142.054 88.2955 142.435 88.3274 142.78 88.3913C143.13 88.4553 143.39 88.5128 143.56 88.5639L143.074 90.6094C142.968 90.5753 142.836 90.5433 142.678 90.5135C142.524 90.4837 142.367 90.4688 142.205 90.4688C141.804 90.4688 141.525 90.5625 141.368 90.75C141.21 90.9332 141.131 91.1911 141.131 91.5234V102H138.414ZM147.199 102.185C146.572 102.185 146.014 102.077 145.524 101.859C145.034 101.638 144.646 101.312 144.361 100.881C144.079 100.447 143.939 99.9055 143.939 99.2578C143.939 98.7124 144.039 98.2543 144.239 97.8835C144.439 97.5128 144.712 97.2145 145.057 96.9886C145.403 96.7628 145.795 96.5923 146.233 96.4773C146.677 96.3622 147.141 96.2812 147.627 96.2344C148.198 96.1747 148.658 96.1193 149.008 96.0682C149.357 96.0128 149.611 95.9318 149.768 95.8253C149.926 95.7187 150.005 95.5611 150.005 95.3523V95.3139C150.005 94.9091 149.877 94.5959 149.621 94.3743C149.37 94.1527 149.012 94.0419 148.547 94.0419C148.057 94.0419 147.667 94.1506 147.378 94.3679C147.088 94.581 146.896 94.8494 146.802 95.1733L144.284 94.9688C144.412 94.3722 144.663 93.8565 145.038 93.4219C145.413 92.983 145.897 92.6463 146.489 92.4119C147.086 92.1733 147.776 92.054 148.56 92.054C149.106 92.054 149.628 92.1179 150.126 92.2457C150.629 92.3736 151.074 92.5717 151.462 92.8402C151.854 93.1087 152.163 93.4538 152.389 93.8757C152.615 94.2933 152.728 94.794 152.728 95.3778V102H150.145V100.638H150.069C149.911 100.945 149.7 101.216 149.436 101.45C149.172 101.68 148.854 101.862 148.483 101.994C148.113 102.121 147.684 102.185 147.199 102.185ZM147.979 100.306C148.379 100.306 148.733 100.227 149.04 100.07C149.346 99.9077 149.587 99.6903 149.762 99.4176C149.937 99.1449 150.024 98.8359 150.024 98.4908V97.4489C149.939 97.5043 149.822 97.5554 149.672 97.6023C149.528 97.6449 149.363 97.6854 149.18 97.7237C148.997 97.7578 148.814 97.7898 148.63 97.8196C148.447 97.8452 148.281 97.8686 148.132 97.8899C147.812 97.9368 147.533 98.0114 147.295 98.1136C147.056 98.2159 146.871 98.3544 146.738 98.5291C146.606 98.6996 146.54 98.9126 146.54 99.1683C146.54 99.5391 146.675 99.8224 146.943 100.018C147.216 100.21 147.561 100.306 147.979 100.306ZM159.276 102.192C158.271 102.192 157.406 101.979 156.681 101.553C155.961 101.122 155.407 100.526 155.019 99.7628C154.636 99 154.444 98.1222 154.444 97.1293C154.444 96.1236 154.638 95.2415 155.026 94.483C155.418 93.7202 155.974 93.1257 156.694 92.6996C157.414 92.2692 158.271 92.054 159.264 92.054C160.12 92.054 160.87 92.2095 161.514 92.5206C162.157 92.8317 162.666 93.2685 163.041 93.831C163.416 94.3935 163.623 95.054 163.661 95.8125H161.092C161.019 95.3224 160.828 94.9283 160.517 94.63C160.21 94.3274 159.807 94.1761 159.308 94.1761C158.887 94.1761 158.518 94.2912 158.203 94.5213C157.892 94.7472 157.649 95.0774 157.474 95.5121C157.299 95.9467 157.212 96.473 157.212 97.0909C157.212 97.7173 157.297 98.25 157.468 98.6889C157.642 99.1278 157.887 99.4624 158.203 99.6925C158.518 99.9226 158.887 100.038 159.308 100.038C159.619 100.038 159.899 99.9737 160.146 99.8459C160.397 99.718 160.604 99.5327 160.766 99.2898C160.932 99.0426 161.041 98.7464 161.092 98.4013H163.661C163.619 99.1513 163.414 99.8118 163.048 100.383C162.686 100.95 162.185 101.393 161.546 101.712C160.906 102.032 160.15 102.192 159.276 102.192ZM170.627 92.1818V94.2273H164.714V92.1818H170.627ZM166.057 89.8295H168.78V98.983C168.78 99.2344 168.818 99.4304 168.895 99.571C168.972 99.7074 169.078 99.8033 169.214 99.8587C169.355 99.9141 169.517 99.9418 169.7 99.9418C169.828 99.9418 169.956 99.9311 170.084 99.9098C170.212 99.8842 170.31 99.8651 170.378 99.8523L170.806 101.879C170.67 101.921 170.478 101.97 170.231 102.026C169.984 102.085 169.683 102.121 169.33 102.134C168.673 102.16 168.098 102.072 167.604 101.872C167.114 101.672 166.732 101.361 166.46 100.939C166.187 100.517 166.053 99.9844 166.057 99.3409V89.8295ZM172.401 102V92.1818H175.124V102H172.401ZM173.769 90.9162C173.364 90.9162 173.017 90.782 172.727 90.5135C172.441 90.2408 172.299 89.9148 172.299 89.5355C172.299 89.1605 172.441 88.8388 172.727 88.5703C173.017 88.2976 173.364 88.1612 173.769 88.1612C174.174 88.1612 174.519 88.2976 174.804 88.5703C175.094 88.8388 175.239 89.1605 175.239 89.5355C175.239 89.9148 175.094 90.2408 174.804 90.5135C174.519 90.782 174.174 90.9162 173.769 90.9162ZM181.741 102.192C180.748 102.192 179.89 101.981 179.165 101.559C178.445 101.133 177.889 100.54 177.497 99.782C177.105 99.0192 176.909 98.1349 176.909 97.1293C176.909 96.1151 177.105 95.2287 177.497 94.4702C177.889 93.7074 178.445 93.1151 179.165 92.6932C179.89 92.267 180.748 92.054 181.741 92.054C182.734 92.054 183.591 92.267 184.311 92.6932C185.035 93.1151 185.594 93.7074 185.986 94.4702C186.378 95.2287 186.574 96.1151 186.574 97.1293C186.574 98.1349 186.378 99.0192 185.986 99.782C185.594 100.54 185.035 101.133 184.311 101.559C183.591 101.981 182.734 102.192 181.741 102.192ZM181.754 100.082C182.206 100.082 182.583 99.9545 182.885 99.6989C183.188 99.4389 183.416 99.0852 183.569 98.6378C183.727 98.1903 183.806 97.6811 183.806 97.1101C183.806 96.5391 183.727 96.0298 183.569 95.5824C183.416 95.1349 183.188 94.7812 182.885 94.5213C182.583 94.2614 182.206 94.1314 181.754 94.1314C181.298 94.1314 180.915 94.2614 180.604 94.5213C180.297 94.7812 180.064 95.1349 179.907 95.5824C179.753 96.0298 179.677 96.5391 179.677 97.1101C179.677 97.6811 179.753 98.1903 179.907 98.6378C180.064 99.0852 180.297 99.4389 180.604 99.6989C180.915 99.9545 181.298 100.082 181.754 100.082ZM191.067 96.3239V102H188.344V92.1818H190.939V93.9141H191.055C191.272 93.343 191.636 92.8913 192.148 92.5589C192.659 92.2223 193.279 92.054 194.008 92.054C194.689 92.054 195.284 92.2031 195.791 92.5014C196.298 92.7997 196.692 93.2259 196.974 93.7798C197.255 94.3295 197.395 94.9858 197.395 95.7486V102H194.672V96.2344C194.677 95.6335 194.523 95.1648 194.212 94.8281C193.901 94.4872 193.473 94.3168 192.927 94.3168C192.561 94.3168 192.237 94.3956 191.956 94.5533C191.679 94.7109 191.461 94.9411 191.304 95.2436C191.15 95.5419 191.072 95.902 191.067 96.3239Z" fill="white"/>
</svg>
